
<svg xmlns="http://www.w3.org/2000/svg" xmlns:xlink="http://www.w3.org/1999/xlink" width="759" height="605" viewBox="0 0 759 605">
  <defs>
    <clipPath id="clip-path">
      <path id="Path_846" data-name="Path 846" d="M665,218h45.787V325.138H665Zm0,0" transform="translate(-665 -218)"/>
    </clipPath>
    <clipPath id="clip-path-2">
      <path id="Path_874" data-name="Path 874" d="M1.453,529.043h623.83v8.778H1.453Zm0,0" transform="translate(-1.453 -529.043)" fill="#a61ab1"/>
    </clipPath>
  </defs>
  <g id="Group_1139" data-name="Group 1139" transform="translate(-3667 406)">
    <rect id="Rectangle_1873" data-name="Rectangle 1873" width="759" height="605" transform="translate(3667 -406)" fill="none"/>
    <g id="Group_1138" data-name="Group 1138" transform="translate(89.944 -318.254)">
      <path id="Path_764" data-name="Path 764" d="M231.86,343.926c21.617-12.884,40.187-33.681,53.845-59.732,26.058-13.648,46.859-32.222,59.746-53.832A173.205,173.205,0,0,1,231.86,343.926ZM16.018,230.362c12.887,21.61,33.691,40.184,59.746,53.832,13.655,26.051,32.228,46.848,53.839,59.732A173.2,173.2,0,0,1,16.018,230.362Zm113.591-215.8C107.992,27.452,89.419,48.249,75.764,74.3c-26.055,13.655-46.859,32.222-59.746,53.828A173.211,173.211,0,0,1,129.609,14.565Zm178.834,195.02a243.709,243.709,0,0,0,0-60.676c28.466,8.574,44.749,19.638,44.749,30.337S336.909,201.011,308.443,209.585Zm-.978,7.177c19.642-5.6,35.182-12.642,44.116-20.981-5.925,31.164-28.3,58.653-60.736,77.853A221.172,221.172,0,0,0,307.464,216.762ZM220.2,298.713c5.136-20.151,8.861-43.922,11-69,25.09-2.141,48.861-5.866,69.022-11a210.266,210.266,0,0,1-19.542,60.469A210.428,210.428,0,0,1,220.2,298.713Zm-1.944,7.232a221.329,221.329,0,0,0,56.882-16.612c-19.2,32.425-46.7,54.8-77.87,60.721C205.611,341.121,212.664,325.588,218.261,305.945Zm-67.871.986a243.9,243.9,0,0,0,60.687,0c-8.57,28.451-19.638,44.731-30.343,44.731S158.964,335.382,150.389,306.931Zm-7.184-.986c5.6,19.642,12.652,35.176,20.991,44.11-31.17-5.918-58.664-28.3-77.873-60.719A221.468,221.468,0,0,0,143.206,305.945ZM61.248,218.713c20.151,5.133,43.923,8.858,69.012,11,2.145,25.079,5.862,48.85,11,69a210.509,210.509,0,0,1-60.48-19.531A210.357,210.357,0,0,1,61.248,218.713Zm-7.236-1.944a221.034,221.034,0,0,0,16.612,56.865c-32.432-19.2-54.81-46.689-60.732-77.853C18.823,204.12,34.363,211.173,54.012,216.769Zm-.986-67.86a243.751,243.751,0,0,0,0,60.676C24.561,201.011,8.284,189.95,8.284,179.246S24.561,157.482,53.026,148.909Zm.986-7.177c-19.649,5.6-35.189,12.646-44.12,20.981,5.921-31.164,28.3-58.657,60.732-77.853A221.094,221.094,0,0,0,54.012,141.732Zm87.247-81.951c-5.136,20.154-8.854,43.922-11,69-25.09,2.141-48.862,5.866-69.019,11A210.551,210.551,0,0,1,80.779,79.316,210.424,210.424,0,0,1,141.259,59.781Zm1.947-7.232A221.3,221.3,0,0,0,86.323,69.161c19.2-32.426,46.7-54.8,77.873-60.721C155.858,17.366,148.805,32.9,143.206,52.549Zm67.87-.979a243.836,243.836,0,0,0-60.687,0c8.575-28.458,19.642-44.739,30.344-44.739S202.506,23.111,211.076,51.57Zm7.184.979c-5.6-19.646-12.649-35.182-20.988-44.109,31.167,5.918,58.671,28.3,77.87,60.721A221.225,221.225,0,0,0,218.261,52.549Zm-81.249,75.7c2.272-27.141,6.278-50.646,11.348-69.555a239.345,239.345,0,0,1,64.751,0c5.071,18.909,9.076,42.414,11.342,69.555-14.368-1.059-29.085-1.616-43.718-1.616S151.382,127.194,137.011,128.253ZM57.962,179.246a240.888,240.888,0,0,1,2.2-32.364c18.916-5.071,42.425-9.076,69.569-11.345-1.055,14.368-1.608,29.078-1.608,43.709s.553,29.343,1.608,43.711c-27.144-2.266-50.653-6.274-69.569-11.338A241.093,241.093,0,0,1,57.962,179.246Zm166.49,51c-2.266,27.138-6.278,50.642-11.342,69.552a239.382,239.382,0,0,1-64.751,0c-5.07-18.909-9.076-42.414-11.348-69.552,14.371,1.055,29.084,1.609,43.722,1.609S210.08,231.3,224.451,230.244Zm-43.718-5.219c-15.564,0-30.344-.544-44.251-1.54-.989-13.9-1.539-28.676-1.539-44.24s.55-30.34,1.539-44.237c13.908-.99,28.687-1.54,44.251-1.54s30.347.55,44.25,1.54c.993,13.9,1.54,28.672,1.54,44.237s-.547,30.339-1.54,44.24C211.08,224.482,196.3,225.025,180.733,225.025Zm122.778-45.78a240.435,240.435,0,0,1-2.2,32.373c-18.916,5.064-42.425,9.072-69.572,11.338,1.058-14.368,1.611-29.078,1.611-43.711s-.553-29.341-1.611-43.709c27.147,2.269,50.657,6.274,69.572,11.345A240.23,240.23,0,0,1,303.511,179.246ZM290.845,84.86c32.433,19.2,54.81,46.689,60.736,77.853-8.934-8.335-24.474-15.384-44.116-20.981A221.258,221.258,0,0,0,290.845,84.86Zm9.384,54.921c-20.161-5.133-43.933-8.858-69.022-11-2.141-25.079-5.866-48.847-11-69a210.344,210.344,0,0,1,60.482,19.535A210.241,210.241,0,0,1,300.229,139.781Zm45.223-11.645C332.564,106.522,311.763,87.955,285.7,74.3c-13.658-26.051-32.228-46.849-53.845-59.736A173.2,173.2,0,0,1,345.451,128.136ZM180.733,0C81.879,0,1.453,80.409,1.453,179.246s80.426,179.241,179.28,179.241,179.283-80.4,179.283-179.241S279.59,0,180.733,0" transform="translate(3655.113 -37)" fill="#f4f4f4"/>
      <path id="Path_765" data-name="Path 765" d="M542.331,375.5H210.476a6.521,6.521,0,0,1-6.523-6.523V136.164a6.517,6.517,0,0,1,6.523-6.523H542.331a6.521,6.521,0,0,1,6.523,6.523V368.981a6.525,6.525,0,0,1-6.523,6.523" transform="translate(3631.914 -51.852)" fill="#9dc7f9"/>
      <path id="Path_766" data-name="Path 766" d="M542.29,129.641H210.183a6.462,6.462,0,0,0-6.527,6.395v17.28H548.82v-17.28a6.463,6.463,0,0,0-6.53-6.395" transform="translate(3631.948 -51.852)" fill="#9dc7f9"/>
      <path id="Path_767" data-name="Path 767" d="M222.779,142.45a5.714,5.714,0,1,1-5.717-5.708,5.713,5.713,0,0,1,5.717,5.708" transform="translate(3631.066 -52.666)" fill="#fff"/>
      <path id="Path_768" data-name="Path 768" d="M242.56,142.45a5.714,5.714,0,1,1-5.71-5.708,5.711,5.711,0,0,1,5.71,5.708" transform="translate(3628.8 -52.666)" fill="#ffcc4d"/>
      <path id="Path_769" data-name="Path 769" d="M262.853,142.45a5.714,5.714,0,1,1-5.71-5.708,5.711,5.711,0,0,1,5.71,5.708" transform="translate(3626.475 -52.666)" fill="#f54553"/>
      <path id="Path_770" data-name="Path 770" d="M548.854,205.272h-344.9V156.379h344.9v48.893" transform="translate(3631.914 -54.916)" fill="#254799"/>
      <path id="Path_771" data-name="Path 771" d="M457.756,191.447H321.078a3.535,3.535,0,0,1-3.531-3.531V177.848a3.534,3.534,0,0,1,3.531-3.532H457.756a3.528,3.528,0,0,1,3.525,3.532v10.068a3.529,3.529,0,0,1-3.525,3.531" transform="translate(3618.9 -56.971)" fill="#ffcc4d"/>
      <path id="Path_772" data-name="Path 772" d="M437.515,242.374H347.328a3.53,3.53,0,0,1-3.531-3.528V228.774a3.532,3.532,0,0,1,3.531-3.528h90.187a3.53,3.53,0,0,1,3.531,3.528v10.072a3.528,3.528,0,0,1-3.531,3.528" transform="translate(3615.893 -62.805)" fill="#346ee3"/>
      <path id="Path_773" data-name="Path 773" d="M565.4,270.65H475.119a3.482,3.482,0,0,1-3.482-3.483v-8.992a3.484,3.484,0,0,1,3.482-3.483H565.4a3.486,3.486,0,0,1,3.483,3.483v8.992a3.484,3.484,0,0,1-3.483,3.483" transform="translate(3601.246 -66.179)" fill="#346ee3"/>
      <path id="Path_774" data-name="Path 774" d="M438.106,354.274h-91.37a2.943,2.943,0,0,1-2.94-2.937v-2.691a2.944,2.944,0,0,1,2.94-2.94h91.37a2.939,2.939,0,0,1,2.94,2.94v2.691a2.939,2.939,0,0,1-2.94,2.937" transform="translate(3615.893 -76.606)" fill="#346ee3"/>
      <path id="Path_775" data-name="Path 775" d="M437.414,393.764H347.432a3.633,3.633,0,0,1-3.635-3.635V365.742a3.631,3.631,0,0,1,3.635-3.629h89.982a3.631,3.631,0,0,1,3.632,3.629v24.388a3.632,3.632,0,0,1-3.632,3.635" transform="translate(3615.893 -78.486)" fill="#fff"/>
      <path id="Path_776" data-name="Path 776" d="M302.281,323.555H219.594a3.63,3.63,0,0,1-3.629-3.629v-61.6a3.631,3.631,0,0,1,3.629-3.636h82.687a3.631,3.631,0,0,1,3.629,3.636v61.6a3.63,3.63,0,0,1-3.629,3.629" transform="translate(3630.538 -66.179)" fill="#fff"/>
      <path id="Path_777" data-name="Path 777" d="M302.281,391.884H219.594a3.631,3.631,0,0,1-3.629-3.635v-38.91a3.631,3.631,0,0,1,3.629-3.632h82.687a3.631,3.631,0,0,1,3.629,3.632v38.91a3.631,3.631,0,0,1-3.629,3.635" transform="translate(3630.538 -76.606)" fill="#fff"/>
      <path id="Path_778" data-name="Path 778" d="M565.25,391.884H475.265a3.631,3.631,0,0,1-3.628-3.635v-38.91a3.631,3.631,0,0,1,3.628-3.632H565.25a3.632,3.632,0,0,1,3.636,3.632v38.91a3.633,3.633,0,0,1-3.636,3.635" transform="translate(3601.246 -76.606)" fill="#fff"/>
      <path id="Path_779" data-name="Path 779" d="M437.414,323.555H347.432a3.631,3.631,0,0,1-3.635-3.629v-61.6a3.633,3.633,0,0,1,3.635-3.636h89.982a3.632,3.632,0,0,1,3.632,3.636v61.6a3.631,3.631,0,0,1-3.632,3.629" transform="translate(3615.893 -66.179)" fill="#fff"/>
      <path id="Path_780" data-name="Path 780" d="M343.8,296.518,370.962,277.7l29.994,22.641,20.786-11.325,19.3,11.325v22.222a3.631,3.631,0,0,1-3.632,3.629H347.432a3.631,3.631,0,0,1-3.635-3.629V296.518" transform="translate(3615.893 -68.815)" fill="#346ee3"/>
      <path id="Path_781" data-name="Path 781" d="M415.553,282.345a5.577,5.577,0,1,1-5.579-5.575,5.577,5.577,0,0,1,5.579,5.575" transform="translate(3608.95 -68.708)" fill="#346ee3"/>
      <path id="Path_782" data-name="Path 782" d="M550.772,326.806H494.135a3.358,3.358,0,0,1-3.362-3.355V286.418a3.358,3.358,0,0,1,3.362-3.352h56.637a3.359,3.359,0,0,1,3.362,3.352v37.032a3.359,3.359,0,0,1-3.362,3.355" transform="translate(3599.054 -69.43)" fill="#fff"/>
      <path id="Path_783" data-name="Path 783" d="M516.917,305.285l8.284,1.234-1.173,6.257-7.951-3.03Zm-8.328-1.232,6.222.927-.746,4-5.476-2.09Zm9.771-6.465h8.515l-1.279,6.845L517.3,303.2Zm-3.154,5.3-6.617-.986v-4.316H516.2Zm17.089,13.039-6.253-2.383,1.259-6.717,6.879,1.02Zm2.369-10.152-6.969-1.031,1.339-7.16h7.543Zm9.2-18.97a2.044,2.044,0,0,0-2.041,1.978l-3.667,2.034-1.082,4.649H507.527a1.06,1.06,0,0,0-1.059,1.062v11.106a1.242,1.242,0,0,0,.052.249,1.458,1.458,0,0,0,.035.159,1.148,1.148,0,0,0,.111.163,1.455,1.455,0,0,0,.121.173c.031.031.08.049.111.076a1.336,1.336,0,0,0,.238.145.03.03,0,0,0,.018.011l22.263,8.49L505.8,317a1.06,1.06,0,0,0,0,2.121H508a2.9,2.9,0,0,0-.723,1.874,2.932,2.932,0,1,0,5.143-1.874h13.14a2.9,2.9,0,0,0-.723,1.874,2.931,2.931,0,0,0,5.862,0,2.894,2.894,0,0,0-.723-1.874h2.193a1.949,1.949,0,0,0,1.847-1.346c.011-.013.024-.02.031-.038a.391.391,0,0,0,.011-.058c.006-.031.027-.052.031-.08l5.921-25.377,2.861-1.588a1.983,1.983,0,0,0,1,.29,2.056,2.056,0,0,0,0-4.112" transform="translate(3597.453 -69.858)" fill="#346ee3"/>
      <path id="Path_784" data-name="Path 784" d="M663.315,402.039h.02ZM650.11,415.283ZM536.535,495.505a1.79,1.79,0,0,1,1.792-1.792H628.25l18.362-79.232a3.222,3.222,0,0,1,.854-1.549l13.607-13.548a3.184,3.184,0,0,1,2.261-.934h8.032a1.8,1.8,0,0,1,0,3.59H663.5l-13.417,13.344-18.407,79.444a3.184,3.184,0,0,1-3.116,2.469H538.327a1.792,1.792,0,0,1-1.792-1.791" transform="translate(3593.811 -82.648)" fill="#254799"/>
      <path id="Path_785" data-name="Path 785" d="M516.491,417.8H646.235a1.8,1.8,0,0,0,0-3.59H516.491a1.8,1.8,0,0,0,0,3.59" transform="translate(3596.313 -84.454)" fill="#254799"/>
      <path id="Path_786" data-name="Path 786" d="M525.932,444.317H641.654a1.795,1.795,0,0,0,0-3.59H525.932a1.795,1.795,0,0,0,0,3.59" transform="translate(3595.231 -87.492)" fill="#254799"/>
      <path id="Path_787" data-name="Path 787" d="M529.678,469H637.02a1.8,1.8,0,0,0,0-3.59H529.678a1.8,1.8,0,0,0,0,3.59" transform="translate(3594.802 -90.32)" fill="#254799"/>
      <path id="Path_788" data-name="Path 788" d="M532.242,484.748a1.761,1.761,0,0,0,.6-.1,1.8,1.8,0,0,0,1.086-2.29L518.182,415.4a1.794,1.794,0,0,0-3.382,1.2l15.751,66.95a1.789,1.789,0,0,0,1.691,1.194" transform="translate(3596.313 -84.454)" fill="#254799"/>
      <path id="Path_789" data-name="Path 789" d="M534.389,493.684h98.1a1.795,1.795,0,0,0,0-3.59h-98.1a1.795,1.795,0,0,0,0,3.59" transform="translate(3594.263 -93.148)" fill="#254799"/>
      <path id="Path_790" data-name="Path 790" d="M611.9,484.99a1.8,1.8,0,0,0,1.753-1.432l13.963-67.192a1.793,1.793,0,1,0-3.511-.727L610.14,482.832a1.8,1.8,0,0,0,1.39,2.12,2.146,2.146,0,0,0,.367.038" transform="translate(3585.383 -84.454)" fill="#254799"/>
      <path id="Path_791" data-name="Path 791" d="M566.355,484.99a1.795,1.795,0,0,0,1.764-2.127l-12.552-67.189a1.794,1.794,0,0,0-3.528.654l12.555,67.2a1.8,1.8,0,0,0,1.76,1.463" transform="translate(3592.039 -84.454)" fill="#254799"/>
      <path id="Path_792" data-name="Path 792" d="M619.488,521.7a4.133,4.133,0,1,0,4.133-4.137A4.138,4.138,0,0,0,619.488,521.7Zm-3.593,0a7.725,7.725,0,1,1,7.726,7.72,7.737,7.737,0,0,1-7.726-7.72" transform="translate(3584.719 -95.884)" fill="#254799"/>
      <path id="Path_793" data-name="Path 793" d="M682.113,399.847a4.872,4.872,0,1,0,4.873-4.87,4.868,4.868,0,0,0-4.873,4.87" transform="translate(3577.133 -82.251)" fill="#254799"/>
      <path id="Path_794" data-name="Path 794" d="M552.114,521.7a4.135,4.135,0,1,0,4.133-4.137A4.142,4.142,0,0,0,552.114,521.7Zm-3.583,0a7.722,7.722,0,1,1,7.717,7.72,7.728,7.728,0,0,1-7.717-7.72" transform="translate(3592.437 -95.884)" fill="#254799"/>
      <path id="Path_795" data-name="Path 795" d="M619.029,205.754a29.353,29.353,0,1,1-29.68-29.012,29.348,29.348,0,0,1,29.68,29.012" transform="translate(3591.086 -57.248)" fill="#ffcc4d"/>
      <path id="Path_796" data-name="Path 796" d="M574.719,206.532l-1.567,8.277,19.089,10.943,15.969-27.244-.08-7.457-17.989,22.423-15.422-6.942" transform="translate(3589.616 -58.888)" fill="#fff"/>
      <path id="Path_797" data-name="Path 797" d="M258.451,395.612a1.035,1.035,0,0,1-1.034-1.031c0-21.593-6.6-36.1-12.752-36.1s-12.759,14.51-12.759,36.1a1.031,1.031,0,0,1-2.061,0c0-21.406,6.509-38.171,14.82-38.171s14.814,16.765,14.814,38.171a1.029,1.029,0,0,1-1.028,1.031" transform="translate(3628.948 -77.832)" fill="#346ee3"/>
      <path id="Path_798" data-name="Path 798" d="M287.413,515.27H197.832V390.441h89.581V515.27" transform="translate(3632.615 -81.731)" fill="#f7bf41"/>
      <path id="Path_799" data-name="Path 799" d="M263.9,515.27H197.832V390.441H263.9V515.27" transform="translate(3632.615 -81.731)" fill="#ffcc4d"/>
      <path id="Path_800" data-name="Path 800" d="M272.449,529.63l10.982-13.849,12.531,13.849Zm0,0" transform="translate(3624.066 -96.091)" fill="#ffcc4d"/>
      <path id="Path_801" data-name="Path 801" d="M249.713,395.612a1.035,1.035,0,0,1-1.034-1.031c0-21.593-6.6-36.1-12.756-36.1s-12.749,14.51-12.749,36.1a1.032,1.032,0,0,1-2.065,0c0-21.406,6.506-38.171,14.814-38.171s14.817,16.765,14.817,38.171a1.028,1.028,0,0,1-1.027,1.031" transform="translate(3629.948 -77.832)" fill="#346ee3"/>
      <path id="Path_802" data-name="Path 802" d="M193.1,445.819a.943.943,0,0,1-.941-.945c0-12.424-7.74-22.533-17.252-22.533s-17.252,10.11-17.252,22.533a.944.944,0,1,1-1.889,0c0-13.468,8.591-24.426,19.14-24.426s19.14,10.957,19.14,24.426a.946.946,0,0,1-.947.945" transform="translate(3637.435 -85.169)" fill="#346ee3"/>
      <path id="Path_803" data-name="Path 803" d="M231.281,521.211H113.027V442.3H231.281v78.914" transform="translate(3642.331 -87.672)" fill="#ef354c"/>
      <path id="Path_804" data-name="Path 804" d="M200.242,521.211H113.027V442.3h87.215v78.914" transform="translate(3642.331 -87.672)" fill="#f54553"/>
      <path id="Path_805" data-name="Path 805" d="M211.527,530.289l14.493-8.758,16.546,8.758Zm0,0" transform="translate(3631.046 -96.749)" fill="#fa5c69"/>
      <path id="Path_806" data-name="Path 806" d="M181.564,445.819a.941.941,0,0,1-.941-.945c0-12.424-7.74-22.533-17.252-22.533s-17.253,10.11-17.253,22.533a.946.946,0,0,1-1.891,0c0-13.468,8.588-24.426,19.144-24.426s19.14,10.957,19.14,24.426a.947.947,0,0,1-.947.945" transform="translate(3638.756 -85.169)" fill="#346ee3"/>
      <path id="Path_807" data-name="Path 807" d="M162.452,529.615A1.978,1.978,0,0,0,163.566,526c-2.5-1.743-8.359-4.524-16.837-5.917a8.338,8.338,0,0,1-4.738-3.49,1.944,1.944,0,0,0-1.781-.816l-5.786.54a1.958,1.958,0,0,0-1.781,1.774,35.129,35.129,0,0,0,.515,10.005,1.959,1.959,0,0,0,1.927,1.529h1.985l25.384-.014" transform="translate(3640.1 -96.09)" fill="#ffcc4d"/>
      <path id="Path_808" data-name="Path 808" d="M66.345,517.021c.844,2.642,2.141,8.218,1.259,11.355a1.761,1.761,0,0,1-1.726,1.241l-10.563.014a1.83,1.83,0,0,1-1.812-1.653c-.529-4.832,2.1-9.177,3.255-10.819a1.825,1.825,0,0,1,1.321-.768l6.381-.591a1.8,1.8,0,0,1,1.885,1.221" transform="translate(3649.158 -96.092)" fill="#ffcc4d"/>
      <path id="Path_809" data-name="Path 809" d="M116.385,245.814c3.868,4.189,17.055,38.71,18.4,42.795,1.328,5.33-2.93,8.671-10.028,6.887-4.282-1.083-18.2-34.051-18.487-43.981-.321-11.082,5.652-10.532,10.113-5.7" transform="translate(3643.106 -64.786)" fill="#f54553"/>
      <path id="Path_810" data-name="Path 810" d="M88.055,375.167,109,430.939a58.945,58.945,0,0,0,.045,13.392c1.532,12.4,17.633,53.036,17.633,53.036a14.831,14.831,0,0,0,12.3-1.29s-12.376-68.8-12.763-70.734-18.754-98-18.754-98l-9.539-3.144-9.861,50.972" transform="translate(3645.192 -74.142)" fill="#1f3b80"/>
      <path id="Path_811" data-name="Path 811" d="M68.309,330.151c-6.246,19.583-8.291,88.357-8.806,92.313s-3.307,18.971-3.334,25.183c-.042,10.414-.014,48.6-.014,48.6a17.354,17.354,0,0,0,11.535.328s8.062-40.1,9.5-68.39c.169-3.268,20.116-67.1,20.462-69.507s.807-26.082.464-29.693-29.811,1.17-29.811,1.17" transform="translate(3648.847 -74.535)" fill="#254799"/>
      <path id="Path_812" data-name="Path 812" d="M78.56,237.266s-13.1,3.877-14.821,6.28,8.284,45.462,7.422,54.229-1.473,18.259-2.006,22.022c-.339,2.4,34.8,7.893,35.49-2.418s7.831-44.876,7.27-60.351c-.426-11.819-1.542-12.9-3.784-14.454s-13.624-5.233-13.624-5.233l-15.948-.076" transform="translate(3648 -64.182)" fill="#f54553"/>
      <path id="Path_813" data-name="Path 813" d="M95.9,182.84a.4.4,0,0,1,.031-.045,7.568,7.568,0,0,0,.512-8.678,37.061,37.061,0,0,0-3.684-5.205,12.7,12.7,0,0,1-3.445,5.624,13.039,13.039,0,0,0,.1-7.772,7.07,7.07,0,0,0-2.6-3.593c-.038-.035-.052-.045-.052-.045s-15.876,20.956-19.03,29.666c-2.584,7.142,6.087,17.836,13.959,23.955,0,0,4.925,4.745,15.772-16.377A26.521,26.521,0,0,0,99.4,181.01a6.352,6.352,0,0,1-3.5,1.83" transform="translate(3647.573 -55.688)" fill="#1f3b80"/>
      <path id="Path_814" data-name="Path 814" d="M83.44,213.4c-.263,16.183-5.534,21.675-5.534,21.675a41.413,41.413,0,0,0,13.344,7.08c2.826.9,5.8-.57,5.676-3.538a14.766,14.766,0,0,0-.771-4.181s-2.573-2.384-2.082-9.263c.176-2.438,1.435-12.739,1.435-12.739s-12.023-1.667-12.067.965" transform="translate(3646.354 -61.278)" fill="#e3885b"/>
      <path id="Path_815" data-name="Path 815" d="M73.819,246.526c5.012,5.686,2.936,35.566,3.78,42.456.028.011,1.034,13.821-7.063,14.187-5,.232-9.6-42.172-9.733-50.688-.176-11.334,7.07-12.707,13.015-5.955" transform="translate(3648.314 -64.775)" fill="#ed996f"/>
      <path id="Path_816" data-name="Path 816" d="M84.862,208.784c3.078-4.257-.647-13.011,2.155-15.616,4.87-4.528,11.49-3.926,14.364,7.066,2.487,9.495,2.221,22.814-2.183,25.149-3.811,2.023-11.569-4.77-15.505-11.459-1.415-.94-4.78-2.6-5.486-4.966-1.456-4.853,2.646-4.694,6.655-.174" transform="translate(3646.354 -58.827)" fill="#ed996f"/>
      <path id="Path_817" data-name="Path 817" d="M73.819,246.526c2.764,3.137,4.438,14.066,4.527,24.007.028,2.943-16.287,3.148-16.287,3.148a163.891,163.891,0,0,1-1.256-21.2c-.176-11.334,7.07-12.707,13.015-5.955" transform="translate(3648.314 -64.775)" fill="#f54553"/>
      <path id="Path_818" data-name="Path 818" d="M177.82,309.726,87.477,326.335,71.7,240.535l90.342-16.609,15.782,85.8" transform="translate(3647.066 -62.654)" fill="#f7bf41"/>
      <path id="Path_819" data-name="Path 819" d="M182.521,309.726l-54.008,9.93-15.783-85.8,54.009-9.93,15.782,85.8" transform="translate(3642.365 -62.654)" fill="#ffcc4d"/>
      <path id="Path_820" data-name="Path 820" d="M152.375,248.2l-12.57,2.311-3.676-19.975L148.7,228.23l3.677,19.971" transform="translate(3639.684 -63.147)" fill="#fff"/>
      <path id="Path_821" data-name="Path 821" d="M150.135,318.166l-15.907,2.923-3.673-19.971,15.907-2.923,3.673,19.971" transform="translate(3640.323 -71.163)" fill="#fff"/>
      <path id="Path_822" data-name="Path 822" d="M137.721,306.9l-4.008.737-.92-5.033,4-.737.924,5.033" transform="translate(3640.066 -71.584)" fill="#bcbec0"/>
      <path id="Path_823" data-name="Path 823" d="M140.116,319.907l-4.013.737L134.129,309.9l4-.74,1.982,10.743" transform="translate(3639.913 -72.42)" fill="#bcbec0"/>
      <path id="Path_824" data-name="Path 824" d="M146.19,301.326l-6.879,1.263-.221-1.214,6.879-1.266.221,1.217" transform="translate(3639.345 -71.382)" fill="#bcbec0"/>
      <path id="Path_825" data-name="Path 825" d="M146.585,303.483l-6.88,1.265-.221-1.217,6.88-1.265.221,1.217" transform="translate(3639.3 -71.629)" fill="#bcbec0"/>
      <path id="Path_826" data-name="Path 826" d="M146.98,305.636,140.1,306.9l-.218-1.214,6.879-1.263.218,1.21" transform="translate(3639.254 -71.877)" fill="#bcbec0"/>
      <path id="Path_827" data-name="Path 827" d="M145.106,309l-4.472.819-.2-1.089,4.471-.823.2,1.093" transform="translate(3639.191 -72.275)" fill="#bcbec0"/>
      <path id="Path_828" data-name="Path 828" d="M145.5,311.172l-4.471.823-.2-1.089,4.476-.823.2,1.09" transform="translate(3639.146 -72.525)" fill="#bcbec0"/>
      <path id="Path_829" data-name="Path 829" d="M145.9,313.347l-4.472.823-.2-1.093,4.472-.82.2,1.089" transform="translate(3639.1 -72.774)" fill="#bcbec0"/>
      <path id="Path_830" data-name="Path 830" d="M146.305,315.516l-4.476.831-.2-1.094,4.472-.823.2,1.086" transform="translate(3639.053 -73.023)" fill="#bcbec0"/>
      <path id="Path_831" data-name="Path 831" d="M146.7,317.691l-4.472.823-.2-1.086,4.479-.823.2,1.086" transform="translate(3639.008 -73.272)" fill="#bcbec0"/>
      <path id="Path_832" data-name="Path 832" d="M147.1,319.867l-4.476.823-.2-1.09,4.471-.823.2,1.09" transform="translate(3638.962 -73.521)" fill="#bcbec0"/>
      <path id="Path_833" data-name="Path 833" d="M150.015,318.156l-1.263.232-1.979-10.747,1.263-.232,1.979,10.746" transform="translate(3638.465 -72.219)" fill="#bcbec0"/>
      <path id="Path_834" data-name="Path 834" d="M124.4,282.2c-1.46-.823-3.736-.328-5.991.4-.228.076,1.045-1.09,1.619-1.978.5-.775.336-1.277.114-1.19-3.068,1.238-4.507,2.577-6.412,5.645-6.582,3.462,4.081,4.431,4.188,4.264,1.56.214,5.351-.149,6.731-1.691,2.279-2.562,2.656-3.8-.249-5.447" transform="translate(3642.495 -69.011)" fill="#ed996f"/>
      <path id="Path_835" data-name="Path 835" d="M183.357,261.984c-1.571-6.087-3.158-4.151-4.51-2.179-1.605,2.331-1.069,6.087,1.37,5.585,1.31-.269,4.337,1.239,3.141-3.406" transform="translate(3634.895 -66.543)" fill="#ed996f"/>
      <path id="Path_836" data-name="Path 836" d="M78.688,295.142c.031.018,11.978-4.556,30.959-9.615,5.008-1.342,2.743,3.143,2.39,3.437-7.633,6.337-32.18,20.435-40.46,19.113-5.119-.819,2.508-16.422,7.111-12.935" transform="translate(3647.274 -69.683)" fill="#ed996f"/>
      <path id="Path_837" data-name="Path 837" d="M234.863,186.886a8.548,8.548,0,1,1,8.55-8.553A8.553,8.553,0,0,1,234.863,186.886Zm0-19.96a11.4,11.4,0,0,0-9.377,17.909c-.049.045-.114.059-.156.107l-8.961,8.955a2.221,2.221,0,1,0,3.137,3.144l8.961-8.962a1.563,1.563,0,0,0,.135-.2,11.411,11.411,0,1,0,6.26-20.949" transform="translate(3630.566 -56.124)" fill="#fff"/>
      <path id="Path_838" data-name="Path 838" d="M634.319,523.191c-2.092,1.557-15.958,7.191-20.541,6.893s11.649-12.856,11.984-12.949,6-3.428,6-3.428c3.659,5.233,4.663,7.927,2.556,9.484" transform="translate(3585.055 -95.853)" fill="#f7bf41"/>
      <path id="Path_839" data-name="Path 839" d="M617.17,530.333c-4.344-1.473,14.586-9.38,14.935-9.38s6.686-.429,6.686-.429c2.176,6.005,2.439,8.678,0,9.636a22.481,22.481,0,0,1-4.721.716H619.982a14.537,14.537,0,0,1-2.812-.543" transform="translate(3584.647 -96.634)" fill="#ffcc4d"/>
      <path id="Path_840" data-name="Path 840" d="M605.079,435.06c-1.232-10.383,18.307-102.4,18.307-102.4l16.806,15.6-19.427,86.959c6.637,10.608,6.741,42.428,10.089,57.74,0,0-14.786,11.023-10.158,6.665,1.809-1.7,4.935-6.3,4.33-7.962,0,0-19.752-54.959-19.946-56.608" transform="translate(3585.965 -75.112)" fill="#965c40"/>
      <path id="Path_841" data-name="Path 841" d="M610.218,318.378c4.734-3.341,25.46-26.3,28.323-32.114,2.736-5.555-3.493-17.19-13.247-4.714-3.794,4.856-18.328,22.6-23.135,27.828-6.329-1.635-17.646-4.7-20.956-4.039-5.623,1.127-2.417,4.6-.622,5.817,4.224,2.885,19.293,9.4,24.436,10.1,1.923.443,1.826-.5,5.2-2.878" transform="translate(3589.057 -68.619)" fill="#f1f2f2"/>
      <path id="Path_842" data-name="Path 842" d="M605.079,435.06c-1.232-10.383,18.307-102.4,18.307-102.4l16.806,15.6-19.427,86.959c6.637,10.608,6.537,41.267,9.885,56.578,0,0-6.039,2.292-6.648.639,0,0-18.729-55.734-18.923-57.383" transform="translate(3585.965 -75.112)" fill="#ef354c"/>
      <path id="Path_843" data-name="Path 843" d="M628.311,501.471c2.189-1.17,6.409-4.8,6.253-6.555l-4.555-59.528s-3.227-60.971-2.269-80c.277-5.576-1.978-22.727-1.978-22.727l21.3,4.714c15.388,19.642,7.658,36.2,7.658,36.2s-6.205,37.368-10.494,65.758c5.583,10.027-3.618,44.012-4.378,59.662-.166,3.528-17.138,5.472-11.538,2.47" transform="translate(3583.589 -75.112)" fill="#965c40"/>
      <path id="Path_844" data-name="Path 844" d="M634.564,494.916l-4.555-59.528s-3.227-60.971-2.269-80c.277-5.576-1.978-22.727-1.978-22.727l21.3,4.714c15.388,19.642,7.658,36.2,7.658,36.2s-4.4,37.631-8.692,66.023c4.383,12.632-3.559,40.789-4.818,56.415-.125,1.58-6.492.651-6.648-1.1" transform="translate(3583.589 -75.112)" fill="#f54553"/>
      <g id="Group_1136" data-name="Group 1136" transform="translate(4244.094 156.025)" clip-path="url(#clip-path)">
        <path id="Path_845" data-name="Path 845" d="M699.856,274.243c9.086,31.685,13.666,33.982,9.29,43.334-4.68,10-28.351,11.234-38.423-3.988-10.338-15.616-3.21-38.921-1.616-54.506,3.435-33.668-10.978-34.456,2.837-39.492,13.576-4.957,24.691,5.991,26.466,17.179,1.611,10.135-1.878,25.886,1.446,37.472" transform="translate(-665.026 -218.042)" fill="#1f3b80"/>
      </g>
      <path id="Path_847" data-name="Path 847" d="M641.341,272.058c-3.282,1.076-18.954,12.178-20.981,16.609-2.887,6.3,4.708,14.381,4.708,14.381s.093,16.595,0,22.6c-.135,9.1,21.3,4.714,21.3,4.714-1.2-12.593,8.921-32.695,13.6-46.471.3-.889-7.25-15.575-18.625-11.836" transform="translate(3584.283 -68.099)" fill="#e6e7e8"/>
      <path id="Path_848" data-name="Path 848" d="M665.764,218.45c-3.712,1.727-4.98,6.862-2.836,11.48s6.882,6.952,10.6,5.23,4.981-6.856,2.836-11.473-6.882-6.96-10.6-5.237" transform="translate(3579.451 -61.962)" fill="#f06570"/>
      <path id="Path_849" data-name="Path 849" d="M653.783,268.25c.443-4.1,2.331-12.908,3.656-15.408,2.034-3.853-2.462-9.618-2.462-9.618l-7.558,5.447c-1.162,8.138-6.941,21.343-6.941,21.343s-9.526,7.783-6.994,7.783c1.733,0,11.217-4.047,16.156-5.365,1.892-.5,4.251-.163,4.126-1.889a13.411,13.411,0,0,1,.018-2.293" transform="translate(3582.753 -64.865)" fill="#8c4f32"/>
      <path id="Path_850" data-name="Path 850" d="M639.438,231.234l11.04,12.662s4.407,10.141,6.686,9.418c12.1-3.825,15.987-15.488,11.67-27.528-2.671-7.447-20.089-16.543-29.4,5.448" transform="translate(3582.022 -61.91)" fill="#254799"/>
      <path id="Path_851" data-name="Path 851" d="M650.374,246.414c-2.3-4.378,2.446-11.607.173-14.454-3.95-4.946-10.275-5.583-14.534,3.8-3.676,8.111-5.3,20.154-1.487,23.045,3.306,2.508,11.573-2.234,16.225-7.557,1.463-.591,4.866-1.491,5.866-3.493,2.058-4.113-1.83-4.7-6.243-1.346" transform="translate(3582.835 -63.169)" fill="#965c40"/>
      <path id="Path_852" data-name="Path 852" d="M635.688,341.635c-.668,2.76,5.1-1.172,8.589.976.622.387,3.932-1.11,4.1-2.231.132-.864-2.964-2.549-4.32-2.74-4.012-.557-7.757,1.48-8.374,4" transform="translate(3582.458 -75.671)" fill="#965c40"/>
      <path id="Path_853" data-name="Path 853" d="M658.828,279.915c-3.088-.339-8.913,3.206-7.831,11.023,1.56,11.231,6.7,27.677,6.7,27.677-7.146,8.979-13.151,12.835-13.057,13.773.124,1.3,1.532,2.642,2.345,3.317a1.31,1.31,0,0,0,1.207.245c3.224-.937,18.73-9.186,21.5-13.506,1.439-2.252.515-13.759-4.348-30.613-2.051-7.1-2.369-11.462-6.516-11.915" transform="translate(3581.426 -69.066)" fill="#f1f2f2"/>
      <path id="Path_854" data-name="Path 854" d="M572.926,308.3c.626.944,4.6,3.849,7.284,3.7,3.389-.91,3.12-2.594,1.781-4.1-1.024-1.142-1.733-3.953-6-4.494-.491-.058.158,1.363.158,1.363s-4.617-4.5-5-3.832c-.7,1.2,1.117,6.354,1.778,7.361" transform="translate(3589.864 -71.47)" fill="#965c40"/>
      <path id="Path_855" data-name="Path 855" d="M583.1,315.485a.987.987,0,0,1-.793-.4L564.06,290.69a.988.988,0,1,1,1.584-1.183L583.892,313.9a.989.989,0,0,1-.2,1.384.979.979,0,0,1-.591.2" transform="translate(3590.681 -70.122)" fill="#1f3b80"/>
      <path id="Path_856" data-name="Path 856" d="M263.265,253.369a11.979,11.979,0,1,1,11.981-11.977A11.981,11.981,0,0,1,263.265,253.369Zm0-34.791c-12.707,0-23.007,10.687-23.007,23.869,0,21.724,18.22,41.325,22.232,45.379a1.106,1.106,0,0,0,1.567.018c4.043-3.93,22.216-22.821,22.216-45.4,0-13.181-10.3-23.869-23.008-23.869" transform="translate(3627.754 -62.041)" fill="#f54553"/>
      <path id="Path_857" data-name="Path 857" d="M431.416,417.255a33.385,33.385,0,1,1-33.387-33.376,33.384,33.384,0,0,1,33.387,33.376" transform="translate(3613.504 -80.979)" fill="#ffcc4d"/>
      <path id="Path_858" data-name="Path 858" d="M427.867,417.782a29.313,29.313,0,1,1-29.312-29.309,29.311,29.311,0,0,1,29.312,29.309" transform="translate(3612.977 -81.506)" fill="#f0a737"/>
      <path id="Path_859" data-name="Path 859" d="M426.133,418.04a27.322,27.322,0,1,1-27.32-27.317,27.321,27.321,0,0,1,27.32,27.317" transform="translate(3612.72 -81.763)" fill="#f7bf41"/>
      <path id="Path_860" data-name="Path 860" d="M404.865,415.16c-5.059-3.87-6.6-5.831-6.6-8.228v-.8c0-2.456,1.616-3.621,3.961-3.621,2.788,0,4.109,1.408,4.109,4.417v.453l7.488-.083v-.858c0-5.4-3.231-8.837-8.664-9.7v-3.867H399v3.867c-5.36.862-8.515,4.171-8.515,9.515v.92c0,4.666,2.422,8.163,9.322,13.5,5.059,3.864,6.6,5.828,6.6,8.221v.92c0,2.456-1.982,3.625-4.254,3.625-3.085,0-4.556-1.411-4.556-4.42v-2.006l-7.481.042v2.456c0,5.337,3.452,8.713,8.882,9.7v4.476h6.157v-4.476c5.509-.8,9.027-4.113,9.027-9.515v-1.045c0-4.665-2.421-8.159-9.318-13.5" transform="translate(3610.586 -82.01)" fill="#f0a737"/>
      <path id="Path_861" data-name="Path 861" d="M403.505,415.16c-5.06-3.87-6.6-5.831-6.6-8.228v-.8c0-2.456,1.608-3.621,3.957-3.621,2.787,0,4.112,1.408,4.112,4.417v.453l7.481-.083v-.858c0-5.4-3.223-8.837-8.657-9.7v-3.867h-6.164v3.867c-5.354.862-8.515,4.171-8.515,9.515v.92c0,4.666,2.424,8.163,9.325,13.5,5.06,3.864,6.6,5.828,6.6,8.221v.92c0,2.456-1.982,3.625-4.254,3.625-3.082,0-4.548-1.411-4.548-4.42v-2.006l-7.488.042v2.456c0,5.337,3.451,8.713,8.882,9.7v4.476H403.8v-4.476c5.5-.8,9.024-4.113,9.024-9.515v-1.045c0-4.665-2.425-8.159-9.318-13.5" transform="translate(3610.742 -82.01)" fill="#fff"/>
      <path id="Path_862" data-name="Path 862" d="M383.349,459.495A36.251,36.251,0,1,1,347.1,423.254a36.248,36.248,0,0,1,36.254,36.241" transform="translate(3619.667 -85.49)" fill="#346ee3"/>
      <path id="Path_863" data-name="Path 863" d="M379.363,460.087a31.672,31.672,0,1,1-31.676-31.661,31.667,31.667,0,0,1,31.676,31.661" transform="translate(3619.075 -86.083)" fill="#fff"/>
      <path id="Path_864" data-name="Path 864" d="M368.5,449.22a2.3,2.3,0,0,0-3.179-.706l-12.216,7.779a5.722,5.722,0,0,0-5.07-.788l-11.082-16.727a1.731,1.731,0,1,0-2.885,1.913l11.082,16.727a5.88,5.88,0,0,0-1.383,3.767,5.956,5.956,0,0,0,11.912,0,6.157,6.157,0,0,0-.1-.99l12.223-7.788a2.3,2.3,0,0,0,.7-3.186" transform="translate(3617.04 -87.18)" fill="#346ee3"/>
      <path id="Path_865" data-name="Path 865" d="M425.752,72.351a26.638,26.638,0,1,1-26.937-26.328,26.626,26.626,0,0,1,26.937,26.328" transform="translate(3612.607 -42.272)" fill="#346ee3"/>
      <path id="Path_866" data-name="Path 866" d="M401.416,54.677,405.29,66.61a.785.785,0,0,0,.737.533h12.548a.77.77,0,0,1,.452,1.394l-10.151,7.378a.768.768,0,0,0-.281.861l3.881,11.933a.773.773,0,0,1-1.19.861l-10.151-7.374a.784.784,0,0,0-.909,0l-10.148,7.374a.772.772,0,0,1-1.19-.861l3.874-11.933a.77.77,0,0,0-.276-.861l-10.148-7.378a.769.769,0,0,1,.453-1.394h12.545a.771.771,0,0,0,.733-.533l3.877-11.933a.774.774,0,0,1,1.47,0" transform="translate(3611.514 -43.203)" fill="#fff"/>
      <path id="Path_867" data-name="Path 867" d="M528.371,521.081H455.478a3.883,3.883,0,0,1-3.884-3.887V455.76a3.879,3.879,0,0,1,3.884-3.877h72.893a3.881,3.881,0,0,1,3.881,3.877v61.434a3.885,3.885,0,0,1-3.881,3.887" transform="translate(3603.543 -88.77)" fill="#ffcc4d"/>
      <path id="Path_868" data-name="Path 868" d="M506.837,521.081H484.563v-69.2h22.274v69.2" transform="translate(3599.766 -88.77)" fill="#f54553"/>
      <path id="Path_869" data-name="Path 869" d="M459.851,425.947c-8.245,12.8,15.2,22.036,15.2,22.036h8.6s-13.942-7.44-13.942-15.07,11.272.923,19.874,15.07h5.486c-12.307-35.84-26.965-34.833-35.217-22.036" transform="translate(3602.798 -84.87)" fill="#ef354c"/>
      <path id="Path_870" data-name="Path 870" d="M529.643,425.947c8.253,12.8-15.194,22.036-15.194,22.036h-8.6s13.942-7.44,13.942-15.07-11.272.923-19.874,15.07H494.43c12.309-35.84,26.961-34.833,35.213-22.036" transform="translate(3598.635 -84.87)" fill="#ef354c"/>
      <path id="Path_871" data-name="Path 871" d="M480.472,451.871c-7.439,7.215-18.269,12.666-18.269,12.666l9.408,12.2,21.237-24.955-12.376.094" transform="translate(3602.327 -88.758)" fill="#ef354c"/>
      <path id="Path_872" data-name="Path 872" d="M509.527,451.426c7.782,6.852,18.507,11.375,18.507,11.375l-8.809,12.639-22.412-23.7,12.714-.311" transform="translate(3598.362 -88.718)" fill="#ef354c"/>
      <g id="Group_1137" data-name="Group 1137" transform="translate(3656.566 431.433)" clip-path="url(#clip-path-2)">
        <path id="Path_873" data-name="Path 873" d="M620.735,537.857H5.7a4.252,4.252,0,0,1,0-8.5H620.735a4.252,4.252,0,0,1,0,8.5" transform="translate(-1.453 -529.078)" fill="#a61ab1"/>
      </g>
    </g>
  </g>
</svg>
